<svg width="34" height="34" viewBox="0 0 34 34" fill="none" xmlns="http://www.w3.org/2000/svg">
<g clip-path="url(#clip0_2_3010)">
<path d="M17.9997 5.68619L17.9997 20.213C18.9423 20.4564 19.7639 21.0352 20.3103 21.8409C20.8568 22.6467 21.0906 23.6241 20.9679 24.59C20.8453 25.5558 20.3746 26.4437 19.6441 27.0873C18.9136 27.7309 17.9734 28.086 16.9998 28.086C16.0262 28.086 15.0861 27.7309 14.3555 27.0873C13.625 26.4437 13.1543 25.5558 13.0317 24.59C12.909 23.6241 13.1428 22.6467 13.6893 21.8409C14.2357 21.0352 15.0573 20.4564 16 20.213L16 5.68619C16.0045 5.42402 16.1119 5.17413 16.2989 4.99034C16.4859 4.80655 16.7376 4.70357 16.9998 4.70357C17.262 4.70357 17.5137 4.80655 17.7007 4.99034C17.8878 5.17413 17.9951 5.42402 17.9997 5.68619Z" fill="darkred"/>
</g>
<defs>
<clipPath id="clip0_2_3010">
<rect width="24" height="24" fill="white" transform="translate(33.9705 17) rotate(135)"/>
</clipPath>
</defs>
</svg>
